<svg width="24" height="24" viewBox="0 0 24 24" fill="none" xmlns="http://www.w3.org/2000/svg">
  <path d="M7.11 8.53L5.7 7.11C4.8 8.27 4.24 9.61 4.07 11H2.05C2.25 7.69 4.23 4.82 7.34 3.3L8.56 4.52C9.5 4.19 10.5 4 11.5 4C15.09 4 18.09 6.64 18.71 10.05L21.94 6.82L22.35 7.23L18.35 11.23L14.35 7.23L14.76 6.82L17.69 9.75C17.31 7.28 15.16 5.5 12.5 5.5C11.54 5.5 10.64 5.75 9.87 6.18L7.11 8.53Z" fill="#F44336"/>
  <path d="M12.5 18.5C15.16 18.5 17.31 16.72 17.69 14.25L14.76 17.18L14.35 16.77L18.35 12.77L22.35 16.77L21.94 17.18L18.71 13.95C18.09 17.36 15.09 20 11.5 20C10.5 20 9.5 19.81 8.56 19.48L7.34 20.7C4.23 19.18 2.25 16.31 2.05 13H4.07C4.24 14.39 4.8 15.73 5.7 16.89L7.11 15.47C7.88 15.25 8.68 15.5 9.13 16.05C9.58 16.6 9.58 17.4 9.13 17.95C8.68 18.5 7.88 18.75 7.11 18.53Z" fill="#F44336"/>
</svg>